<?xml version="1.0" encoding="UTF-8" standalone="no"?>
<svg
   width="552.52802"
   height="178.98241"
   viewBox="0 0 552.52802 178.98241"
   fill="none"
   version="1.1"
   id="svg33"
   xmlns="http://www.w3.org/2000/svg"
   xmlns:svg="http://www.w3.org/2000/svg">
  <g
     filter="url(#filter0_d_31_2)"
     id="g4"
     transform="translate(-8.181763,-22.227301)">
    <path
       d="M 28.6364,93 H 8.18182 L 31.2273,23.1818 H 57.1364 L 80.1818,93 H 59.7273 L 44.4545,42.4091 H 43.9091 Z M 24.8182,65.4545 H 63.2727 V 79.6364 H 24.8182 Z M 86.9062,93 V 23.1818 h 18.9548 v 54.5455 h 28.227 V 93 Z M 141.75,93 V 23.1818 h 18.955 v 54.5455 h 28.227 V 93 Z m 92.105,0 h -20.454 l 23.045,-69.8182 h 25.909 L 285.401,93 H 264.946 L 249.673,42.4091 h -0.545 z m -3.818,-27.5455 h 38.454 V 79.6364 H 230.037 Z M 292.125,93 V 23.1818 h 30.273 c 5.318,0 9.784,0.7159 13.397,2.1477 3.637,1.4319 6.375,3.4546 8.216,6.0682 1.864,2.6137 2.796,5.6932 2.796,9.2387 0,2.5681 -0.568,4.9091 -1.705,7.0227 -1.113,2.1136 -2.682,3.8864 -4.704,5.3182 -2.023,1.4091 -4.387,2.3863 -7.091,2.9318 v 0.6818 c 3,0.1136 5.727,0.875 8.182,2.2841 2.454,1.3864 4.409,3.3068 5.863,5.7614 1.455,2.4318 2.182,5.2954 2.182,8.5909 0,3.8182 -1,7.2159 -3,10.1932 -1.977,2.9772 -4.795,5.3181 -8.454,7.0227 C 334.42,92.1477 330.057,93 324.989,93 Z M 311.08,77.8636 h 8.863 c 3.182,0 5.568,-0.5909 7.159,-1.7727 1.591,-1.2045 2.387,-2.9773 2.387,-5.3182 0,-1.6363 -0.375,-3.0227 -1.125,-4.1591 -0.75,-1.1363 -1.819,-2 -3.205,-2.5909 -1.364,-0.5909 -3.011,-0.8863 -4.943,-0.8863 h -9.136 z m 0,-26.4545 h 7.772 c 1.659,0 3.125,-0.2614 4.398,-0.7841 1.273,-0.5227 2.261,-1.2727 2.966,-2.25 0.727,-1 1.091,-2.2159 1.091,-3.6477 0,-2.1591 -0.773,-3.8068 -2.318,-4.9432 -1.546,-1.1591 -3.5,-1.7386 -5.864,-1.7386 h -8.045 z m 112.806,6.6818 c 0,7.7727 -1.511,14.3296 -4.534,19.6705 -3.022,5.3181 -7.102,9.3522 -12.238,12.1022 -5.137,2.7273 -10.864,4.0909 -17.182,4.0909 -6.364,0 -12.114,-1.375 -17.25,-4.125 -5.114,-2.7727 -9.182,-6.8181 -12.205,-12.1363 -3,-5.3409 -4.5,-11.875 -4.5,-19.6023 0,-7.7727 1.5,-14.3182 4.5,-19.6364 3.023,-5.3409 7.091,-9.375 12.205,-12.1022 5.136,-2.75 10.886,-4.125 17.25,-4.125 6.318,0 12.045,1.375 17.182,4.125 5.136,2.7272 9.216,6.7613 12.238,12.1022 3.023,5.3182 4.534,11.8637 4.534,19.6364 z m -19.5,0 c 0,-4.1818 -0.556,-7.7045 -1.67,-10.5682 -1.091,-2.8863 -2.716,-5.0682 -4.875,-6.5454 -2.136,-1.5 -4.773,-2.25 -7.909,-2.25 -3.137,0 -5.784,0.75 -7.943,2.25 -2.137,1.4772 -3.762,3.6591 -4.875,6.5454 -1.091,2.8637 -1.637,6.3864 -1.637,10.5682 0,4.1818 0.546,7.7159 1.637,10.6023 1.113,2.8636 2.738,5.0454 4.875,6.5454 2.159,1.4773 4.806,2.2159 7.943,2.2159 3.136,0 5.773,-0.7386 7.909,-2.2159 2.159,-1.5 3.784,-3.6818 4.875,-6.5454 1.114,-2.8864 1.67,-6.4205 1.67,-10.6023 z m 69.588,-34.9091 h 18.955 v 44.7273 c 0,5.3182 -1.273,9.9204 -3.818,13.8068 -2.523,3.8636 -6.046,6.8523 -10.568,8.9659 -4.523,2.0909 -9.773,3.1364 -15.75,3.1364 -6.023,0 -11.296,-1.0455 -15.819,-3.1364 -4.522,-2.1136 -8.045,-5.1023 -10.568,-8.9659 -2.5,-3.8864 -3.75,-8.4886 -3.75,-13.8068 V 23.1818 h 18.955 v 43.0909 c 0,2.1591 0.477,4.0909 1.432,5.7955 0.954,1.6818 2.272,3 3.954,3.9545 1.705,0.9546 3.637,1.4318 5.796,1.4318 2.181,0 4.113,-0.4772 5.795,-1.4318 1.682,-0.9545 3,-2.2727 3.955,-3.9545 0.954,-1.7046 1.431,-3.6364 1.431,-5.7955 z m 26.054,15.2727 V 23.1818 h 60.682 v 15.2727 h -21 V 93 H 521.028 V 38.4545 Z"
       fill="#000000"
       id="path2" />
  </g>
  <path
     d="m 107.09124,90.954699 h 18.682 V 138.8177 c -0.023,4.546 -1.171,8.546 -3.444,12 -2.25,3.432 -5.363,6.114 -9.341,8.046 -3.954,1.909 -8.511,2.864 -13.67,2.864 -4.477,0 -8.568203,-0.773 -12.272703,-2.319 -3.7046,-1.568 -6.6591,-4.022 -8.8637,-7.363 -2.2045,-3.364 -3.2954,-7.728 -3.2727,-13.091 H 93.86324 c 0.069,1.75 0.364,3.227 0.887,4.432 0.545,1.204 1.295,2.113 2.25,2.727 0.977,0.591 2.159,0.886 3.545,0.886 1.409,0 2.591,-0.307 3.546,-0.92 0.977,-0.614 1.716,-1.523 2.216,-2.727 0.5,-1.228 0.761,-2.739 0.784,-4.535 z m 68.983,0 h 18.954 V 135.6817 c 0,5.318 -1.272,9.921 -3.818,13.807 -2.523,3.864 -6.045,6.852 -10.568,8.966 -4.523,2.091 -9.773,3.136 -15.75,3.136 -6.023,0 -11.296,-1.045 -15.818,-3.136 -4.523,-2.114 -8.046,-5.102 -10.568,-8.966 -2.5,-3.886 -3.75,-8.489 -3.75,-13.807 V 90.954699 h 18.954 V 134.0457 c 0,2.159 0.477,4.091 1.432,5.795 0.954,1.682 2.273,3 3.954,3.955 1.705,0.954 3.637,1.432 5.796,1.432 2.182,0 4.114,-0.478 5.795,-1.432 1.682,-0.955 3,-2.273 3.955,-3.955 0.954,-1.704 1.432,-3.636 1.432,-5.795 z m 27.963,69.818001 V 90.954699 h 30.136 c 5.182,0 9.716,1.023 13.602,3.068 3.887,2.045 6.909,4.92 9.069,8.625001 2.159,3.705 3.238,8.034 3.238,12.989 0,5 -1.113,9.329 -3.341,12.988 -2.204,3.659 -5.307,6.478 -9.307,8.455 -3.977,1.977 -8.625,2.966 -13.943,2.966 h -18 v -14.728 h 14.182 c 2.227,0 4.125,-0.386 5.693,-1.159 1.591,-0.795 2.807,-1.92 3.648,-3.375 0.864,-1.454 1.295,-3.17 1.295,-5.147 0,-2 -0.431,-3.705 -1.295,-5.114 -0.841,-1.432 -2.057,-2.523 -3.648,-3.273 -1.568,-0.772 -3.466,-1.159 -5.693,-1.159 h -6.682 v 54.682 z m 81.954,-69.818001 V 160.7727 h -18.954 V 90.954699 Z m 7.074,15.273001 V 90.954699 h 60.682 V 106.2277 h -21 v 54.545 h -18.682 v -54.545 z m 67.815,54.545 V 90.954699 h 50.319 V 106.2277 h -31.364 v 12 h 28.773 v 15.272 h -28.773 v 12 h 31.227 v 15.273 z m 59.719,0 V 90.954699 h 30.137 c 5.181,0 9.716,0.943 13.602,2.829 3.886,1.887 6.909,4.603 9.068,8.148001 2.159,3.546 3.239,7.796 3.239,12.75 0,5 -1.114,9.216 -3.341,12.648 -2.205,3.432 -5.307,6.023 -9.307,7.773 -3.977,1.75 -8.625,2.625 -13.943,2.625 h -18 v -14.728 h 14.182 c 2.227,0 4.125,-0.272 5.693,-0.818 1.591,-0.568 2.807,-1.466 3.648,-2.693 0.863,-1.227 1.295,-2.83 1.295,-4.807 0,-2 -0.432,-3.625 -1.295,-4.875 -0.841,-1.273 -2.057,-2.204 -3.648,-2.795 -1.568,-0.614 -3.466,-0.921 -5.693,-0.921 h -6.682 v 54.682 z m 40.909,-32.045 17.455,32.045 h -20.591 l -17.045,-32.045 z"
     fill="#000000"
     id="path6" />
  <path
     d="M 200.94624,163.5907 V 93.772699 l 3,-3 m -3,72.818001 h 18.955 l 3,-3 m -21.955,3 3,-3 m 27.137,-66.818001 c 5.181,0 9.715,1.023 13.602,3.068 3.886,2.046 6.909,4.921001 9.068,8.625001 2.159,3.705 3.239,8.034 3.239,12.989 0,5 -1.114,9.329 -3.341,12.988 -2.205,3.66 -5.307,6.478 -9.307,8.455 -3.977,1.977 -8.625,2.966 -13.943,2.966 h -10.5 l 3,-3 m -3,-11.727 h 6.682 c 2.227,0 4.125,-0.387 5.693,-1.159 1.591,-0.796 2.807,-1.921 3.647,-3.375 0.864,-1.455 1.296,-3.171 1.296,-5.148 0,-2 -0.432,-3.705 -1.296,-5.114 -0.84,-1.432 -2.056,-2.523 -3.647,-3.273 -1.568,-0.772 -3.466,-1.159 -5.693,-1.159 h -6.682 m 0,19.228 v -19.228 m 0,19.228 3,-3 m -3,-16.228 3,-3 m 60,-12.136001 3,-3 m -21.955,72.818001 h 18.955 l 3,-3 m -21.955,3 V 93.772699 l 3,-3 m -3,72.818001 3,-3 m 23.029,-51.545 V 93.772699 l 3,-3 m -3,18.273001 h 21 m -21,0 3,-3 m 18,57.545 h 18.681 l 3,-3 m -21.681,3 v -54.545 m 0,54.545 3,-3 m -3,-51.545 3,-3 m 94.133,-12.273001 3,-3 m -34.364,18.273001 h 31.364 l 3,-3 m -34.364,3 v 12 m 0,-12 3,-3 m -3,15 h 28.773 l 3,-3 m -31.773,3 3,-3 m -3,18.272 h 28.773 l 3,-3 m -31.773,3 v 12 m 0,-12 3,-3 m -3,15 h 31.228 l 3,-3 m -34.228,3 3,-3 m 37.765,18.273 V 93.772699 l 3,-3 h 30.136 c 5.182,0 9.716,0.943 13.602,2.83 3.887,1.886 6.909,4.602 9.068,8.147001 2.16,3.546 3.239,7.796 3.239,12.75 0,5 -1.113,9.216 -3.341,12.648 -2.204,3.432 -4.826,5.806 -8.826,7.556 m -46.878,28.887 h 18.954 l 3,-3 m -21.954,3 3.309,-3 h 18.645 m 8.182,-66.818001 c 5.182,0 9.716,0.943 13.602,2.83 3.887,1.886 6.909,4.602001 9.068,8.147001 2.16,3.546 3.239,7.796 3.239,12.75 0,5 -1.113,9.216 -3.341,12.648 -2.204,3.432 -4.826,5.806 -8.826,7.556 l 3,-3 m -27.924,-25.795 h 6.682 c 2.227,0 4.125,0.307 5.693,0.921 1.591,0.591 2.807,1.523 3.648,2.795 0.864,1.25 1.295,2.875 1.295,4.875 0,1.978 -0.431,3.58 -1.295,4.807 -0.841,1.227 -2.057,2.125 -3.648,2.693 -1.568,0.546 -3.466,0.818 -5.693,0.818 h -6.682 m 0,-16.909 v 16.909 m 0,-16.909 3,-3 m 15.818,57.682 h 20.591 l 3,-3 m -23.591,3 -12.136,-23.045 m 12.136,23.045 3,-3 m -15.136,-20.045 h -6.682 l 3,-3 m 3.682,3 3,-3 m -9.682,-11.728 3,-3 m -332.463,-32.045001 h 18.682 m -18.682,0 V 138.6367 c -0.023,1.795 -0.284,3.306 -0.784,4.534 -0.5,1.204 -1.239,2.113 -2.216,2.727 -0.954,0.614 -2.136,0.92 -3.545,0.92 -1.387,0 -2.568,-0.295 -3.546,-0.886 -0.954,-0.614 -1.704,-1.523 -2.25,-2.727 -0.522,-1.205 -0.818,-2.682 -0.886,-4.432 m 13.227,-48.000001 -3,3 V 141.6367 c -0.023,1.795 -0.284,3.306 -0.784,4.534 -0.5,1.204 -1.239,2.113 -2.216,2.727 -0.954,0.614 -2.136,0.92 -3.545,0.92 -1.387,0 -2.568,-0.295 -3.546,-0.886 -0.954,-0.614 -1.704,-1.523 -2.249703,-2.727 -0.5228,-1.205 -0.8182,-2.682 -0.8864,-4.432 l 3.000103,-3 m 31.909,-48.000001 V 138.6367 c -0.023,4.545 -1.17,8.545 -3.443,12 -2.25,3.431 -5.364,6.113 -9.341,8.045 -3.955,1.909 -8.511,2.864 -13.671,2.864 -4.477,0 -8.567703,-0.773 -12.272303,-2.318 -3.7045,-1.569 -6.6591,-4.023 -8.8636,-7.364 -2.2046,-3.364 -3.2955,-7.727 -3.2728,-13.091 m 50.863703,-48.000001 -3,3 V 141.6367 c -0.023,4.545 -1.17,8.545 -3.443,12 -2.25,3.431 -5.364,6.113 -9.341,8.045 -3.955,1.909 -8.511,2.864 -13.671,2.864 -4.476803,0 -8.567703,-0.773 -12.272303,-2.318 -3.7045,-1.569 -6.6591,-4.023 -8.8636,-7.364 -2.2046,-3.364 -3.2955,-7.727 -3.2728,-13.091 l 3,-3 m 0,0 H 93.77324 m 82.21,-48.000001 h 18.955 m -18.955,0 V 133.8637 c 0,2.159 -0.477,4.091 -1.432,5.795 -0.954,1.682 -2.272,3 -3.954,3.955 -1.682,0.954 -3.614,1.432 -5.796,1.432 -2.159,0 -4.091,-0.478 -5.795,-1.432 -1.682,-0.955 -3,-2.273 -3.955,-3.955 -0.954,-1.704 -1.432,-3.636 -1.432,-5.795 V 90.772699 m 22.364,0 -3,3 V 136.8637 c 0,2.159 -0.477,4.091 -1.432,5.795 -0.954,1.682 -2.272,3 -3.954,3.955 -1.682,0.954 -3.614,1.432 -5.796,1.432 -2.159,0 -4.091,-0.478 -5.795,-1.432 -1.682,-0.955 -3,-2.273 -3.955,-3.955 -0.954,-1.704 -1.432,-3.636 -1.432,-5.795 V 93.772699 l 3,-3 m 41.319,0 V 135.4997 c 0,5.318 -1.273,9.921 -3.819,13.807 -2.522,3.864 -6.045,6.852 -10.568,8.966 -4.522,2.091 -9.772,3.136 -15.75,3.136 -6.022,0 -11.295,-1.045 -15.818,-3.136 -4.523,-2.114 -8.045,-5.102 -10.568,-8.966 -2.5,-3.886 -3.75,-8.489 -3.75,-13.807 V 90.772699 m 60.273,0 -3,3 V 138.4997 c 0,5.318 -1.273,9.921 -3.819,13.807 -2.522,3.864 -6.045,6.852 -10.568,8.966 -4.522,2.091 -9.772,3.136 -15.75,3.136 -6.022,0 -11.295,-1.045 -15.818,-3.136 -4.523,-2.114 -8.045,-5.102 -10.568,-8.966 -2.5,-3.886 -3.75,-8.489 -3.75,-13.807 V 93.772699 l 3,-3 m 0,0 h 18.954 m 50.327,69.818001 V 90.772699 m 0,69.818001 h 18.955 m -18.955,-69.818001 h 30.137 c 5.181,0 9.715,1.023 13.602,3.068 3.886,2.046 6.909,4.921 9.068,8.625001 2.159,3.705 3.239,8.034 3.239,12.989 0,5 -1.114,9.329 -3.341,12.988 -2.205,3.66 -5.307,6.478 -9.307,8.455 -3.977,1.977 -8.625,2.966 -13.943,2.966 h -10.5 m 0,0 v 20.727 m 0,-35.454 h 6.682 c 2.227,0 4.125,-0.387 5.693,-1.159 1.591,-0.796 2.807,-1.921 3.647,-3.375 0.864,-1.455 1.296,-3.171 1.296,-5.148 0,-2 -0.432,-3.705 -1.296,-5.114 -0.84,-1.432 -2.056,-2.523 -3.647,-3.273 -1.568,-0.772 -3.466,-1.159 -5.693,-1.159 h -6.682 m 0,19.228 v -19.228 m 63,-15.136001 V 160.5907 m 0,-69.818001 h -18.955 m 18.955,69.818001 h -18.955 m 0,0 V 90.772699 m 26.029,15.273001 V 90.772699 m 0,15.273001 h 21 m -21,-15.273001 h 60.681 V 106.0457 m 0,0 h -21 m 21,0 -3,3 h -21 l 3,-3 m 0,0 v 54.545 m 0,0 h -18.681 m 0,0 v -54.545 m 46.815,-15.273001 V 160.5907 h 50.182 m -50.182,-69.818001 h 50.318 m -50.318,0 -3,3 V 163.5907 h 50.182 l 3,-3 m 0.136,-69.818001 V 106.0457 m 0,0 h -31.364 m 0,0 v 12 m 0,0 h 28.773 m 0,0 v 15.272 m 0,0 h -28.773 m 0,0 v 12 m 0,0 h 31.228 m 0,0 v 15.273 m 53.415,-25.887 14.485,25.887 m -39.409,-54.682 h 6.682 c 2.227,0 4.125,0.307 5.693,0.921 1.591,0.591 2.807,1.523 3.648,2.795 0.864,1.25 1.295,2.875 1.295,4.875 0,1.978 -0.431,3.58 -1.295,4.807 -0.841,1.227 -2.057,2.125 -3.648,2.693 -1.568,0.546 -3.466,0.818 -5.693,0.818 h -6.682 m 0,-16.909 v 16.909 m 0,37.773 v -23.045 m 39.409,23.045 h -20.591 m 0,0 -12.136,-23.045 m 0,0 h -6.682"
     stroke="#000000"
     id="path8" />
  <path
     d="m 491.81824,118.9107 14,-28.138001 -5.95,22.862001 5.6,-1.407 -13.65,29.545 5.95,-23.917 z"
     fill="#fee70f"
     stroke="#000000"
     id="path10" />
  <path
     d="m 44.818237,155.9107 14,-28.138 -5.95,22.862 5.6,-1.407 -13.65,29.545 5.95,-23.917 z"
     fill="#fee70f"
     stroke="#000000"
     id="path12" />
  <defs
     id="defs31">
    <filter
       id="filter0_d_31_2"
       x="0.18176299"
       y="22.227301"
       width="560.52802"
       height="79.727203"
       filterUnits="userSpaceOnUse"
       color-interpolation-filters="sRGB">
      <feFlood
         flood-opacity="0"
         result="BackgroundImageFix"
         id="feFlood14" />
      <feColorMatrix
         in="SourceAlpha"
         type="matrix"
         values="0 0 0 0 0 0 0 0 0 0 0 0 0 0 0 0 0 0 127 0"
         result="hardAlpha"
         id="feColorMatrix16" />
      <feOffset
         dx="-4"
         dy="4"
         id="feOffset18" />
      <feGaussianBlur
         stdDeviation="2"
         id="feGaussianBlur20" />
      <feComposite
         in2="hardAlpha"
         operator="out"
         id="feComposite22" />
      <feColorMatrix
         type="matrix"
         values="0 0 0 0 0 0 0 0 0 0 0 0 0 0 0 0 0 0 0.25 0"
         id="feColorMatrix24" />
      <feBlend
         mode="normal"
         in2="BackgroundImageFix"
         result="effect1_dropShadow_31_2"
         id="feBlend26" />
      <feBlend
         mode="normal"
         in="SourceGraphic"
         in2="effect1_dropShadow_31_2"
         result="shape"
         id="feBlend28" />
    </filter>
  </defs>
</svg>
